<svg xmlns="http://www.w3.org/2000/svg" viewBox="0 0 800 450" width="800" height="450">
  <defs>
    <linearGradient id="bg" x1="0%" y1="0%" x2="100%" y2="100%">
      <stop offset="0%" style="stop-color:#050510"/>
      <stop offset="100%" style="stop-color:#0f1a2e"/>
    </linearGradient>
  </defs>
  <rect width="800" height="450" fill="url(#bg)"/>
  <circle cx="400" cy="200" r="200" fill="#7c3aed" opacity="0.04"/>
  <rect x="140" y="80" width="520" height="300" rx="14" fill="#1a1a2e" stroke="#6d28d9" stroke-width="2.5"/>
  <rect x="154" y="94" width="492" height="272" rx="10" fill="#050510"/>
  <text x="400" y="248" text-anchor="middle" fill="#7c3aed" font-size="100" font-weight="bold" font-family="Arial" opacity="0.2">4K</text>
  <text x="400" y="248" text-anchor="middle" fill="white" font-size="80" font-weight="bold" font-family="Arial">4K</text>
  <rect x="170" y="105" width="55" height="24" rx="4" fill="#374151"/>
  <text x="197" y="121" text-anchor="middle" fill="#9ca3af" font-size="11" font-family="Arial" font-weight="bold">1080p</text>
  <rect x="235" y="105" width="55" height="24" rx="4" fill="#1d4ed8"/>
  <text x="262" y="121" text-anchor="middle" fill="white" font-size="11" font-family="Arial" font-weight="bold">1440p</text>
  <rect x="300" y="105" width="55" height="24" rx="4" fill="#7c3aed"/>
  <text x="327" y="121" text-anchor="middle" fill="white" font-size="11" font-family="Arial" font-weight="bold">4K</text>
  <rect x="365" y="105" width="55" height="24" rx="4" fill="#6d28d9" stroke="#a855f7" stroke-width="1.5"/>
  <text x="392" y="121" text-anchor="middle" fill="#e9d5ff" font-size="11" font-family="Arial" font-weight="bold">8K ⭐</text>
  <rect x="154" y="320" width="492" height="46" rx="6" fill="#1e1e3a" opacity="0.9"/>
  <text x="400" y="340" text-anchor="middle" fill="#c4b5fd" font-size="11" font-family="Arial">Resolución: 3840 × 2160 px</text>
  <text x="400" y="357" text-anchor="middle" fill="#8b5cf6" font-size="11" font-family="Arial">H.265 / HEVC — AV1 — 4:2:0 — HDR10</text>
  <rect x="360" y="380" width="80" height="16" rx="4" fill="#374151"/>
  <rect x="330" y="394" width="140" height="10" rx="4" fill="#4b5563"/>
  <rect x="80" y="120" width="50" height="50" rx="8" fill="#3b0764" opacity="0.8"/>
  <text x="105" y="150" text-anchor="middle" fill="#c4b5fd" font-size="22">💾</text>
  <text x="105" y="190" text-anchor="middle" fill="#9ca3af" font-size="10" font-family="Arial">~350MB/min</text>
  <rect x="670" y="120" width="50" height="50" rx="8" fill="#1e3a5f" opacity="0.8"/>
  <text x="695" y="150" text-anchor="middle" fill="#93c5fd" font-size="22">⚡</text>
  <text x="695" y="190" text-anchor="middle" fill="#9ca3af" font-size="10" font-family="Arial">DASH Stream</text>
  <text x="400" y="57" text-anchor="middle" fill="white" font-size="26" font-weight="bold" font-family="Arial">Descarga en Calidad 4K</text>
  <text x="400" y="425" text-anchor="middle" fill="#6b7280" font-size="12" font-family="Arial">FTY Downloader Pro — Ultra HD • HEVC • AV1</text>
</svg>
