<svg xmlns="http://www.w3.org/2000/svg" viewBox="0 0 800 450" width="800" height="450">
  <defs>
    <linearGradient id="bg" x1="0%" y1="0%" x2="100%" y2="100%">
      <stop offset="0%" style="stop-color:#0a0a14"/>
      <stop offset="100%" style="stop-color:#0f1a2e"/>
    </linearGradient>
  </defs>
  <rect width="800" height="450" fill="url(#bg)"/>
  <!-- Codec comparison bars -->
  <text x="400" y="55" text-anchor="middle" fill="white" font-size="24" font-weight="bold" font-family="Arial">Evolución de Codecs de Video 2026</text>
  <text x="400" y="80" text-anchor="middle" fill="#93c5fd" font-size="13" font-family="Arial">H.264 → H.265 → AV1 — La Revolución de la Compresión</text>
  <!-- Codec cards -->
  <rect x="60" y="110" width="190" height="210" rx="14" fill="#1f2937" stroke="#6b7280" stroke-width="1.5"/>
  <text x="155" y="148" text-anchor="middle" fill="white" font-size="18" font-weight="bold" font-family="monospace">H.264</text>
  <text x="155" y="170" text-anchor="middle" fill="#9ca3af" font-size="11" font-family="Arial">AVC • 2003</text>
  <rect x="80" y="185" width="150" height="8" rx="4" fill="#374151"/>
  <rect x="80" y="185" width="90" height="8" rx="4" fill="#6b7280"/>
  <text x="155" y="213" text-anchor="middle" fill="#9ca3af" font-size="10" font-family="Arial">Compresión: 60%</text>
  <text x="155" y="233" text-anchor="middle" fill="#9ca3af" font-size="10" font-family="Arial">Compatible: ✓✓✓✓✓</text>
  <text x="155" y="253" text-anchor="middle" fill="#9ca3af" font-size="10" font-family="Arial">Bitrate: ~8 Mbps (1080p)</text>
  <rect x="80" y="280" width="150" height="26" rx="6" fill="#374151"/>
  <text x="155" y="298" text-anchor="middle" fill="#d1d5db" font-size="11" font-family="Arial">Estándar heredado</text>

  <rect x="305" y="100" width="190" height="230" rx="14" fill="#1e3a5f" stroke="#3b82f6" stroke-width="1.5"/>
  <text x="400" y="138" text-anchor="middle" fill="white" font-size="18" font-weight="bold" font-family="monospace">H.265</text>
  <text x="400" y="160" text-anchor="middle" fill="#93c5fd" font-size="11" font-family="Arial">HEVC • 2013</text>
  <rect x="325" y="175" width="150" height="8" rx="4" fill="#374151"/>
  <rect x="325" y="175" width="120" height="8" rx="4" fill="#3b82f6"/>
  <text x="400" y="203" text-anchor="middle" fill="#93c5fd" font-size="10" font-family="Arial">Compresión: 80%</text>
  <text x="400" y="223" text-anchor="middle" fill="#93c5fd" font-size="10" font-family="Arial">Compatible: ✓✓✓✓</text>
  <text x="400" y="243" text-anchor="middle" fill="#93c5fd" font-size="10" font-family="Arial">Bitrate: ~4 Mbps (1080p)</text>
  <text x="400" y="263" text-anchor="middle" fill="#93c5fd" font-size="10" font-family="Arial">2x más eficiente que H.264</text>
  <rect x="325" y="278" width="150" height="26" rx="6" fill="#1d4ed8"/>
  <text x="400" y="296" text-anchor="middle" fill="white" font-size="11" font-family="Arial">Standard actual</text>

  <rect x="550" y="90" width="190" height="250" rx="14" fill="#14532d" stroke="#22c55e" stroke-width="2"/>
  <text x="645" y="128" text-anchor="middle" fill="white" font-size="18" font-weight="bold" font-family="monospace">AV1</text>
  <text x="645" y="150" text-anchor="middle" fill="#86efac" font-size="11" font-family="Arial">Open Source • 2018</text>
  <rect x="570" y="165" width="150" height="8" rx="4" fill="#374151"/>
  <rect x="570" y="165" width="148" height="8" rx="4" fill="#22c55e"/>
  <text x="645" y="193" text-anchor="middle" fill="#86efac" font-size="10" font-family="Arial">Compresión: 93%</text>
  <text x="645" y="213" text-anchor="middle" fill="#86efac" font-size="10" font-family="Arial">Compatible: ✓✓✓</text>
  <text x="645" y="233" text-anchor="middle" fill="#86efac" font-size="10" font-family="Arial">Bitrate: ~2 Mbps (1080p)</text>
  <text x="645" y="253" text-anchor="middle" fill="#86efac" font-size="10" font-family="Arial">30% mejor que H.265</text>
  <text x="645" y="273" text-anchor="middle" fill="#86efac" font-size="10" font-family="Arial">Gratis sin licencias ⭐</text>
  <rect x="570" y="288" width="150" height="26" rx="6" fill="#15803d"/>
  <text x="645" y="306" text-anchor="middle" fill="white" font-size="11" font-family="Arial" font-weight="bold">Futuro del video ⭐</text>

  <text x="400" y="385" text-anchor="middle" fill="#4b5563" font-size="12" font-family="Arial">FTY Downloader Pro prioriza AV1 para máximo ahorro sin perder calidad</text>
</svg>
