<svg xmlns="http://www.w3.org/2000/svg" viewBox="0 0 800 450" width="800" height="450">
  <defs>
    <linearGradient id="bg" x1="0%" y1="0%" x2="100%" y2="100%">
      <stop offset="0%" style="stop-color:#0f0f1a"/>
      <stop offset="100%" style="stop-color:#1a0533"/>
    </linearGradient>
  </defs>
  <rect width="800" height="450" fill="url(#bg)"/>
  <g opacity="0.7">
    <rect x="60" y="200" width="12" height="50" rx="6" fill="#8b5cf6"/>
    <rect x="80" y="170" width="12" height="110" rx="6" fill="#7c3aed"/>
    <rect x="100" y="155" width="12" height="140" rx="6" fill="#8b5cf6"/>
    <rect x="120" y="145" width="12" height="160" rx="6" fill="#a855f7"/>
    <rect x="140" y="160" width="12" height="130" rx="6" fill="#8b5cf6"/>
    <rect x="160" y="185" width="12" height="80" rx="6" fill="#7c3aed"/>
    <rect x="180" y="175" width="12" height="100" rx="6" fill="#8b5cf6"/>
    <rect x="200" y="150" width="12" height="150" rx="6" fill="#a855f7"/>
    <rect x="220" y="165" width="12" height="120" rx="6" fill="#8b5cf6"/>
  </g>
  <circle cx="400" cy="210" r="90" fill="#1a0533" stroke="#8b5cf6" stroke-width="2.5" opacity="0.9"/>
  <text x="400" y="225" text-anchor="middle" fill="#a855f7" font-size="42" font-weight="bold" font-family="Arial, monospace">MP3</text>
  <text x="400" y="255" text-anchor="middle" fill="#c4b5fd" font-size="14" font-family="Arial">320 kbps</text>
  <g opacity="0.7">
    <rect x="548" y="185" width="12" height="80" rx="6" fill="#8b5cf6"/>
    <rect x="568" y="165" width="12" height="120" rx="6" fill="#7c3aed"/>
    <rect x="588" y="150" width="12" height="150" rx="6" fill="#a855f7"/>
    <rect x="608" y="145" width="12" height="160" rx="6" fill="#8b5cf6"/>
    <rect x="628" y="155" width="12" height="140" rx="6" fill="#7c3aed"/>
    <rect x="648" y="170" width="12" height="110" rx="6" fill="#8b5cf6"/>
    <rect x="668" y="185" width="12" height="80" rx="6" fill="#a855f7"/>
    <rect x="688" y="200" width="12" height="50" rx="6" fill="#8b5cf6"/>
  </g>
  <rect x="80" y="345" width="170" height="55" rx="10" fill="#2e1065" opacity="0.85"/>
  <text x="165" y="368" text-anchor="middle" fill="#c4b5fd" font-size="12" font-family="Arial" font-weight="bold">128 kbps</text>
  <text x="165" y="388" text-anchor="middle" fill="#a855f7" font-size="10" font-family="Arial">Buena calidad</text>
  <rect x="315" y="345" width="170" height="55" rx="10" fill="#2e1065" opacity="0.85"/>
  <text x="400" y="368" text-anchor="middle" fill="#c4b5fd" font-size="12" font-family="Arial" font-weight="bold">192 kbps</text>
  <text x="400" y="388" text-anchor="middle" fill="#a855f7" font-size="10" font-family="Arial">Calidad balanceada</text>
  <rect x="550" y="345" width="170" height="55" rx="10" fill="#3b0764" stroke="#a855f7" stroke-width="1.5" opacity="0.9"/>
  <text x="635" y="368" text-anchor="middle" fill="white" font-size="12" font-family="Arial" font-weight="bold">320 kbps ⭐</text>
  <text x="635" y="388" text-anchor="middle" fill="#c4b5fd" font-size="10" font-family="Arial">Máxima fidelidad</text>
  <text x="400" y="55" text-anchor="middle" fill="white" font-size="26" font-weight="bold" font-family="Arial">Convertir Video a MP3</text>
  <text x="400" y="83" text-anchor="middle" fill="#c4b5fd" font-size="13" font-family="Arial">Extrae audio en alta calidad con FTY Downloader Pro</text>
</svg>
