<svg xmlns="http://www.w3.org/2000/svg" viewBox="0 0 800 450" width="800" height="450">
  <defs>
    <linearGradient id="bg" x1="0%" y1="0%" x2="100%" y2="100%">
      <stop offset="0%" style="stop-color:#050510"/>
      <stop offset="100%" style="stop-color:#0f1a2e"/>
    </linearGradient>
  </defs>
  <rect width="800" height="450" fill="url(#bg)"/>
  <!-- Stars -->
  <circle cx="100" cy="80" r="1.5" fill="white" opacity="0.6"/>
  <circle cx="250" cy="50" r="1" fill="white" opacity="0.5"/>
  <circle cx="500" cy="70" r="2" fill="white" opacity="0.7"/>
  <circle cx="700" cy="90" r="1.5" fill="white" opacity="0.5"/>
  <circle cx="150" cy="400" r="1" fill="white" opacity="0.4"/>
  <circle cx="650" cy="380" r="1.5" fill="white" opacity="0.6"/>
  <text x="400" y="55" text-anchor="middle" fill="white" font-size="24" font-weight="bold" font-family="Arial">El Futuro de las Descargas 2026-2027</text>
  <!-- 3 trend cards -->
  <rect x="50" y="90" width="200" height="240" rx="16" fill="#1a1a2e" stroke="#8b5cf6" stroke-width="1.5"/>
  <text x="150" y="135" text-anchor="middle" fill="#8b5cf6" font-size="36">🤖</text>
  <text x="150" y="165" text-anchor="middle" fill="white" font-size="14" font-weight="bold" font-family="Arial">IA Integrada</text>
  <rect x="70" y="178" width="160" height="1" fill="#8b5cf6" opacity="0.3"/>
  <text x="150" y="200" text-anchor="middle" fill="#c4b5fd" font-size="10" font-family="Arial">Detección automática</text>
  <text x="150" y="218" text-anchor="middle" fill="#c4b5fd" font-size="10" font-family="Arial">del mejor codec</text>
  <text x="150" y="238" text-anchor="middle" fill="#c4b5fd" font-size="10" font-family="Arial">Optimización de bitrate</text>
  <text x="150" y="258" text-anchor="middle" fill="#c4b5fd" font-size="10" font-family="Arial">en tiempo real</text>
  <rect x="70" y="288" width="160" height="26" rx="8" fill="#4c1d95"/>
  <text x="150" y="306" text-anchor="middle" fill="#e9d5ff" font-size="11" font-family="Arial">En desarrollo</text>

  <rect x="300" y="90" width="200" height="240" rx="16" fill="#1a2e1a" stroke="#22c55e" stroke-width="2"/>
  <text x="400" y="135" text-anchor="middle" fill="#22c55e" font-size="36">☁️</text>
  <text x="400" y="165" text-anchor="middle" fill="white" font-size="14" font-weight="bold" font-family="Arial">Cloud Download</text>
  <rect x="320" y="178" width="160" height="1" fill="#22c55e" opacity="0.3"/>
  <text x="400" y="200" text-anchor="middle" fill="#86efac" font-size="10" font-family="Arial">Descarga directo</text>
  <text x="400" y="218" text-anchor="middle" fill="#86efac" font-size="10" font-family="Arial">a tu Drive / NAS</text>
  <text x="400" y="238" text-anchor="middle" fill="#86efac" font-size="10" font-family="Arial">Sin ocupar el móvil</text>
  <text x="400" y="258" text-anchor="middle" fill="#86efac" font-size="10" font-family="Arial">100% automático</text>
  <rect x="320" y="288" width="160" height="26" rx="8" fill="#14532d"/>
  <text x="400" y="306" text-anchor="middle" fill="#86efac" font-size="11" font-family="Arial" font-weight="bold">⭐ Próximamente</text>

  <rect x="550" y="90" width="200" height="240" rx="16" fill="#1e3a5f" stroke="#38bdf8" stroke-width="1.5"/>
  <text x="650" y="135" text-anchor="middle" fill="#38bdf8" font-size="36">⚡</text>
  <text x="650" y="165" text-anchor="middle" fill="white" font-size="14" font-weight="bold" font-family="Arial">8K &amp; HDR</text>
  <rect x="570" y="178" width="160" height="1" fill="#38bdf8" opacity="0.3"/>
  <text x="650" y="200" text-anchor="middle" fill="#7dd3fc" font-size="10" font-family="Arial">Soporte 8K completo</text>
  <text x="650" y="218" text-anchor="middle" fill="#7dd3fc" font-size="10" font-family="Arial">HDR10 / Dolby Vision</text>
  <text x="650" y="238" text-anchor="middle" fill="#7dd3fc" font-size="10" font-family="Arial">AV1 de próxima gen</text>
  <text x="650" y="258" text-anchor="middle" fill="#7dd3fc" font-size="10" font-family="Arial">Velocidades 10x</text>
  <rect x="570" y="288" width="160" height="26" rx="8" fill="#0c4a6e"/>
  <text x="650" y="306" text-anchor="middle" fill="#7dd3fc" font-size="11" font-family="Arial">2027</text>

  <text x="400" y="390" text-anchor="middle" fill="#4b5563" font-size="12" font-family="Arial">FTY Downloader Pro — Siempre a la vanguardia tecnológica</text>
</svg>
