<svg xmlns="http://www.w3.org/2000/svg" viewBox="0 0 800 450" width="800" height="450">
  <defs>
    <linearGradient id="bg" x1="0%" y1="0%" x2="100%" y2="100%">
      <stop offset="0%" style="stop-color:#0a0a14"/>
      <stop offset="100%" style="stop-color:#1a0533"/>
    </linearGradient>
  </defs>
  <rect width="800" height="450" fill="url(#bg)"/>
  <!-- Stars -->
  <circle cx="80" cy="60" r="1.5" fill="white" opacity="0.5"/>
  <circle cx="200" cy="30" r="1" fill="white" opacity="0.4"/>
  <circle cx="600" cy="50" r="2" fill="white" opacity="0.6"/>
  <circle cx="750" cy="80" r="1.5" fill="white" opacity="0.5"/>
  <text x="400" y="55" text-anchor="middle" fill="white" font-size="22" font-weight="bold" font-family="Arial">El Futuro del Video Corto 2026-2027</text>
  <text x="400" y="79" text-anchor="middle" fill="#c4b5fd" font-size="12" font-family="Arial">IA Generativa • Micro-learning • Compras en video • Deepfakes</text>
  <!-- Trend 1: AI Avatars -->
  <rect x="40" y="105" width="165" height="185" rx="14" fill="#1a0533" stroke="#a855f7" stroke-width="1.5"/>
  <text x="122" y="148" text-anchor="middle" fill="#a855f7" font-size="34">🤖</text>
  <text x="122" y="175" text-anchor="middle" fill="white" font-size="12" font-weight="bold" font-family="Arial">IA Generativa</text>
  <rect x="56" y="188" width="133" height="1" fill="#a855f7" opacity="0.3"/>
  <text x="122" y="210" text-anchor="middle" fill="#c4b5fd" font-size="10" font-family="Arial">Avatares en 20 idiomas</text>
  <text x="122" y="228" text-anchor="middle" fill="#c4b5fd" font-size="10" font-family="Arial">B-Roll automático</text>
  <text x="122" y="246" text-anchor="middle" fill="#c4b5fd" font-size="10" font-family="Arial">Scripts predictivos</text>
  <rect x="62" y="264" width="120" height="18" rx="6" fill="#4c1d95"/>
  <text x="122" y="277" text-anchor="middle" fill="#e9d5ff" font-size="9" font-family="Arial">Tendencia #1</text>
  <!-- Trend 2: Micro-learning -->
  <rect x="218" y="105" width="165" height="185" rx="14" fill="#001a33" stroke="#38bdf8" stroke-width="1.5"/>
  <text x="300" y="148" text-anchor="middle" fill="#38bdf8" font-size="34">🎓</text>
  <text x="300" y="175" text-anchor="middle" fill="white" font-size="12" font-weight="bold" font-family="Arial">Micro-Learning</text>
  <rect x="234" y="188" width="133" height="1" fill="#38bdf8" opacity="0.3"/>
  <text x="300" y="210" text-anchor="middle" fill="#7dd3fc" font-size="10" font-family="Arial">Habilidades en 90s</text>
  <text x="300" y="228" text-anchor="middle" fill="#7dd3fc" font-size="10" font-family="Arial">Supera a Google</text>
  <text x="300" y="246" text-anchor="middle" fill="#7dd3fc" font-size="10" font-family="Arial">Búsqueda visual</text>
  <rect x="240" y="264" width="120" height="18" rx="6" fill="#0c4a6e"/>
  <text x="300" y="277" text-anchor="middle" fill="#7dd3fc" font-size="9" font-family="Arial">Gen Z + Alfa</text>
  <!-- Trend 3: Shoppable Video -->
  <rect x="396" y="105" width="165" height="185" rx="14" fill="#0a1a00" stroke="#22c55e" stroke-width="1.5"/>
  <text x="478" y="148" text-anchor="middle" fill="#22c55e" font-size="34">🛒</text>
  <text x="478" y="175" text-anchor="middle" fill="white" font-size="12" font-weight="bold" font-family="Arial">Shoppable Video</text>
  <rect x="412" y="188" width="133" height="1" fill="#22c55e" opacity="0.3"/>
  <text x="478" y="210" text-anchor="middle" fill="#86efac" font-size="10" font-family="Arial">Compra sin salir</text>
  <text x="478" y="228" text-anchor="middle" fill="#86efac" font-size="10" font-family="Arial">AR try-on real</text>
  <text x="478" y="246" text-anchor="middle" fill="#86efac" font-size="10" font-family="Arial">Live shopping</text>
  <rect x="418" y="264" width="120" height="18" rx="6" fill="#14532d"/>
  <text x="478" y="277" text-anchor="middle" fill="#86efac" font-size="9" font-family="Arial">Revenue #1</text>
  <!-- Trend 4: Authenticity -->
  <rect x="574" y="105" width="185" height="185" rx="14" fill="#1a0000" stroke="#ef4444" stroke-width="1.5"/>
  <text x="666" y="148" text-anchor="middle" fill="#ef4444" font-size="34">🎭</text>
  <text x="666" y="175" text-anchor="middle" fill="white" font-size="12" font-weight="bold" font-family="Arial">Autenticidad Real</text>
  <rect x="590" y="188" width="153" height="1" fill="#ef4444" opacity="0.3"/>
  <text x="666" y="210" text-anchor="middle" fill="#fca5a5" font-size="10" font-family="Arial">Detectar deepfakes</text>
  <text x="666" y="228" text-anchor="middle" fill="#fca5a5" font-size="10" font-family="Arial">Probar autoría</text>
  <text x="666" y="246" text-anchor="middle" fill="#fca5a5" font-size="10" font-family="Arial">Respaldo original</text>
  <rect x="596" y="264" width="140" height="18" rx="6" fill="#7f1d1d"/>
  <text x="666" y="277" text-anchor="middle" fill="#fca5a5" font-size="9" font-family="Arial">FTY Pro te protege</text>
  <!-- Bottom -->
  <text x="400" y="340" text-anchor="middle" fill="#6b7280" font-size="12" font-family="Arial">Guarda tus originales • La autenticidad es la divisa más valiosa del 2026</text>
</svg>
